<svg data-logo="logo" xmlns="http://www.w3.org/2000/svg"
    viewBox="0 0 109 41">
    <path
        d="M65.07 9.355a30.501 30.501 0 00-9.903-6.702A30.19 30.19 0 0043.485.3c-4.008 0-7.977.8-11.68 2.353A30.503 30.503 0 0021.9 9.355l21.584 21.86L65.07 9.354z"
        fill="#2A2A4A" />
    <path
        d="M43.513 31.245a30.5 30.5 0 009.902 6.702A30.19 30.19 0 0065.097 40.3c4.008 0 7.978-.8 11.681-2.353a30.5 30.5 0 009.903-6.702L65.097 9.386l-21.584 21.86zM43.46 31.24a30.5 30.5 0 01-9.904 6.702 30.19 30.19 0 01-11.681 2.353c-4.009 0-7.978-.8-11.681-2.353A30.5 30.5 0 01.29 31.241L21.875 9.38l21.584 21.86z"
        fill="#A48FFF" />
    <path
        d="M65.123 9.36a30.499 30.499 0 019.903-6.702A30.191 30.191 0 0186.706.305c4.01 0 7.979.8 11.682 2.353a30.502 30.502 0 019.903 6.701L86.707 31.22 65.123 9.359z"
        fill="#2A2A4A" />
</svg>